<svg width="315" height="141" viewBox="0 0 315 141" fill="none" xmlns="http://www.w3.org/2000/svg">
<mask id="path-1-inside-1_1213_9" fill="white">
<path d="M381 140.5C381 198.214 311.156 245 225 245C138.843 245 44.8803 197.566 53.4998 140.5C67.9999 44.5 220.843 17.5 307 17.5C393.156 17.5 381 82.7862 381 140.5Z"/>
<path d="M347.5 116C347.5 173.714 277.656 220.5 191.5 220.5C105.343 220.5 -16.5188 190.313 2.99992 136C44.5077 20.5 187.343 -7 273.5 -7C359.656 -7 347.5 58.2862 347.5 116Z"/>
</mask>
<path d="M53.4998 140.5L55.4774 140.799L53.4998 140.5ZM2.99992 136L4.88207 136.676L2.99992 136ZM379 140.5C379 168.485 362.067 194.061 334.195 212.731C306.337 231.393 267.736 243 225 243V247C268.42 247 307.819 235.214 336.422 216.054C365.011 196.903 383 170.229 383 140.5H379ZM225 243C182.246 243 137.563 231.221 104.702 212.414C71.6969 193.524 51.363 168.039 55.4774 140.799L51.5222 140.201C47.0171 170.028 69.355 196.792 102.715 215.886C136.221 235.062 181.597 247 225 247V243ZM55.4774 140.799C62.5576 93.9227 103.467 63.5568 154.071 44.8762C204.579 26.2314 264.08 19.5 307 19.5V15.5C263.763 15.5 203.764 22.2686 152.686 41.1238C101.705 59.9432 58.942 91.0773 51.5222 140.201L55.4774 140.799ZM307 19.5C328.305 19.5 343.283 23.5384 353.832 30.2875C364.342 37.012 370.655 46.5551 374.408 57.9814C378.178 69.4575 379.348 82.786 379.553 96.9623C379.656 104.04 379.518 111.291 379.354 118.6C379.19 125.897 379 133.258 379 140.5H383C383 133.314 383.189 126.009 383.353 118.69C383.517 111.381 383.657 104.063 383.553 96.9042C383.345 82.6073 382.17 68.793 378.209 56.7332C374.231 44.6238 367.429 34.2383 355.987 26.918C344.584 19.6224 328.773 15.5 307 15.5V19.5ZM345.5 116C345.5 143.985 328.567 169.561 300.695 188.231C272.837 206.893 234.236 218.5 191.5 218.5V222.5C234.92 222.5 274.319 210.714 302.922 191.554C331.511 172.403 349.5 145.729 349.5 116H345.5ZM191.5 218.5C148.601 218.5 96.8404 210.978 58.315 196.741C39.0298 189.615 23.2655 180.88 13.5472 170.733C3.92095 160.683 0.314962 149.385 4.88207 136.676L1.11777 135.324C-4.07447 149.772 0.2328 162.615 10.6585 173.5C20.9921 184.289 37.4183 193.284 56.9285 200.493C95.9936 214.929 148.242 222.5 191.5 222.5V218.5ZM4.88207 136.676C25.3835 79.629 70.9282 44.2145 122.269 23.0364C173.626 1.85204 230.597 -5 273.5 -5V-9C230.246 -9 172.722 -2.10204 120.744 19.3386C68.7512 40.7855 22.1242 76.871 1.11777 135.324L4.88207 136.676ZM273.5 -5C294.805 -5 309.783 -0.961596 320.332 5.78746C330.842 12.512 337.155 22.0551 340.908 33.4814C344.678 44.9575 345.848 58.2861 346.053 72.4623C346.156 79.5397 346.019 86.7912 345.854 94.0998C345.691 101.397 345.5 108.758 345.5 116H349.5C349.5 108.814 349.689 101.509 349.853 94.1896C350.018 86.8811 350.157 79.5634 350.053 72.4042C349.845 58.1073 348.67 44.293 344.709 32.2332C340.731 20.1238 333.929 9.73825 322.487 2.41805C311.084 -4.87762 295.273 -9 273.5 -9V-5Z" fill="#6EC47C" mask="url(#path-1-inside-1_1213_9)"/>
</svg>
