<svg width="539" height="345" viewBox="0 0 539 345" fill="none" xmlns="http://www.w3.org/2000/svg">
<path d="M462.159 206.986C462.159 206.986 424.893 289.916 485.876 289.916C546.86 289.916 507.37 204.161 507.37 204.161C507.37 204.161 521.481 197.958 505.113 151.694C488.745 105.429 481.421 105.438 474.617 105.438C466.028 105.438 458.026 125.468 463.871 156.212C463.854 156.203 442.402 194.571 462.159 206.986Z" fill="#EBEBEB"/>
<path d="M491.291 344.92L485.414 219.987L479.536 344.92H491.291Z" fill="#A6A6A6"/>
<path d="M487.803 272.364L465.64 246.502L483.024 275.784L487.803 272.364Z" fill="#A6A6A6"/>
<path d="M69.9804 211.422C69.9804 211.422 106.048 291.692 47.0238 291.692C-12.0002 291.692 26.258 208.687 26.258 208.687C26.258 208.687 12.5932 202.682 28.4487 157.913C44.3041 113.144 51.3721 113.136 57.9524 113.136C66.2687 113.136 74.0145 132.522 68.3353 162.275C68.3353 162.275 89.1012 199.411 69.9804 211.422Z" fill="#DBDBDB"/>
<path d="M41.791 344.92L47.4785 224.002L53.166 344.92H41.791Z" fill="#A6A6A6"/>
<path d="M45.1641 274.702L66.6161 249.666L49.7934 278.014L45.1641 274.702Z" fill="#A6A6A6"/>
<path d="M187.26 211.422C187.26 211.422 151.192 291.692 210.208 291.692C269.224 291.692 230.974 208.687 230.974 208.687C230.974 208.687 244.639 202.682 228.791 157.913C212.944 113.144 205.86 113.136 199.279 113.136C190.963 113.136 183.226 132.522 188.896 162.275C188.896 162.275 168.131 199.411 187.26 211.422Z" fill="#DBDBDB"/>
<path d="M215.449 344.92L209.762 224.002L204.074 344.92H215.449Z" fill="#A6A6A6"/>
<path d="M212.068 274.702L190.625 249.666L207.447 278.014L212.068 274.702Z" fill="#A6A6A6"/>
<path d="M431.507 205.359C431.507 205.359 450.313 197.925 465.243 223.862C480.553 250.475 461.366 268.011 446.131 257.571C446.131 257.571 434.193 282.632 410.303 276.668C386.412 270.704 382.535 251.607 382.535 251.607C382.535 251.607 361.339 253.094 360.736 237.284C360.132 221.474 375.665 207.449 375.665 207.449C375.665 207.449 376.567 168.065 402.243 168.371C427.919 168.677 431.507 205.359 431.507 205.359Z" fill="#DBDBDB"/>
<path d="M414.047 344.92L408.674 227.735L403.292 344.92H414.047Z" fill="#A6A6A6"/>
<path d="M410.972 270.365L426.753 238.902L406.368 267.606L410.972 270.365Z" fill="#A6A6A6"/>
<path d="M138.181 192.448C138.181 192.448 117.63 184.296 101.319 212.661C84.596 241.736 105.56 260.899 122.193 249.492C122.193 249.492 135.246 276.874 161.344 270.348C187.442 263.823 191.682 242.975 191.682 242.975C191.682 242.975 214.829 244.627 215.499 227.322C216.168 210.017 199.213 194.728 199.213 194.728C199.213 194.728 198.238 151.702 170.181 152.032C142.124 152.363 138.181 192.448 138.181 192.448Z" fill="#EBEBEB"/>
<path d="M157.269 344.92L163.138 216.898L169.007 344.92H157.269Z" fill="#A6A6A6"/>
<path d="M160.616 263.468L143.389 229.09L165.651 260.445L160.616 263.468Z" fill="#A6A6A6"/>
<path d="M425.282 33.2449C431.225 33.2449 531.236 33.9057 537.518 33.7075C537.973 33.7075 538.213 33.0302 537.766 32.8071C533.798 30.8495 529.31 31.2377 525.193 29.8501C522.771 29.0241 521.283 27.4547 519.596 25.6375C518.205 24.0536 516.407 22.8797 514.396 22.2426C512.554 21.6904 510.598 21.6306 508.726 22.0691C506.7 22.5482 504.939 23.7211 502.997 24.448C498.194 26.257 493.531 24.5306 490.101 20.9788C487.265 18.0548 484.488 15.2877 480.644 13.7183C479.073 13.008 477.373 12.6289 475.649 12.6047C473.925 12.5806 472.214 12.9119 470.624 13.5779C466.954 15.2299 464.433 18.5339 460.994 20.5823C456.902 22.9695 452.024 22.4078 447.511 23.1264C442.997 23.845 439.533 27.6446 435.574 29.8253C434.288 30.6573 432.798 31.1202 431.267 31.1634C430.382 31.1634 429.514 30.8991 428.638 30.7917C427.274 30.6265 425.984 30.6595 425.067 31.7994C424.844 32.072 424.893 33.2449 425.282 33.2449Z" fill="#EBEBEB"/>
<path d="M0.631554 16.0811C4.97155 16.0811 77.9828 16.5602 82.579 16.4197C82.9014 16.4197 83.0833 15.9241 82.7526 15.7589C79.8593 14.33 76.5774 14.6191 73.5766 13.6031C71.8076 13.0084 70.7164 11.852 69.4929 10.5304C68.4759 9.37252 67.1607 8.51545 65.6902 8.05236C64.3481 7.64565 62.9223 7.60006 61.5569 7.9202C60.127 8.40859 58.7298 8.98797 57.374 9.6548C53.8689 10.9764 50.4548 9.72088 47.95 7.12724C45.8916 4.9879 43.8166 2.99724 41.0473 1.82432C39.9019 1.303 38.6615 1.02228 37.403 0.999548C36.1446 0.976814 34.8948 1.21255 33.7313 1.69216C31.0529 2.90638 29.2177 5.34308 26.7046 6.81336C23.7204 8.55622 20.1574 8.14322 16.859 8.67186C13.5606 9.2005 11.0724 11.9759 8.14596 13.5618C7.20355 14.1651 6.11509 14.502 4.99636 14.5365C4.35287 14.478 3.71276 14.3871 3.07849 14.2639C2.61858 14.1381 2.13304 14.1401 1.67418 14.2696C1.21532 14.3992 0.800526 14.6514 0.474489 14.999C0.309155 15.2303 0.342221 16.0811 0.631554 16.0811Z" fill="#EBEBEB"/>
<path d="M308.515 79.8402C312.855 79.8402 385.875 80.3193 390.463 80.1706C390.793 80.1706 390.967 79.675 390.636 79.518C387.751 78.0808 384.469 78.3699 381.46 77.3622C379.691 76.7675 378.608 75.6111 377.377 74.2812C376.36 73.1234 375.044 72.2663 373.574 71.8032C372.23 71.4031 370.806 71.3604 369.441 71.6793C367.961 72.0262 366.671 72.877 365.258 73.4139C361.753 74.7355 358.347 73.48 355.842 70.8863C353.775 68.747 351.709 66.7563 348.931 65.5752C347.785 65.0569 346.545 64.7806 345.288 64.7635C344.03 64.7465 342.783 64.989 341.623 65.476C338.945 66.6903 337.101 69.127 334.588 70.589C331.604 72.3318 328.041 71.9188 324.743 72.4475C321.444 72.9761 318.956 75.7515 316.038 77.3374C315.098 77.9458 314.008 78.283 312.888 78.3121C312.244 78.3121 311.607 78.1221 310.97 78.0478C309.97 77.9239 309.028 77.9486 308.358 78.7829C308.201 78.9811 308.234 79.8402 308.515 79.8402Z" fill="#EBEBEB"/>
<path d="M166.461 39.3329C170.801 39.3329 243.821 39.8203 248.409 39.6716C248.739 39.6716 248.913 39.176 248.591 39.0108C245.697 37.5818 242.415 37.8709 239.406 36.8549C237.637 36.2602 236.554 35.1038 235.322 33.7822C234.307 32.6262 232.995 31.7694 231.528 31.3042C230.186 30.899 228.76 30.8534 227.395 31.172C225.965 31.6604 224.568 32.2398 223.212 32.9066C219.707 34.2282 216.301 32.9727 213.796 30.3791C211.729 28.2397 209.663 26.2491 206.885 25.0761C205.74 24.5579 204.499 24.2816 203.242 24.2645C201.984 24.2475 200.737 24.49 199.577 24.977C196.899 26.183 195.056 28.6279 192.542 30.09C189.55 31.8328 185.987 31.4281 182.68 31.9485C179.374 32.4688 176.894 35.2525 173.976 36.8384C173.032 37.4395 171.944 37.7762 170.826 37.8131C170.182 37.7552 169.542 37.6643 168.908 37.5405C168.447 37.414 167.96 37.4156 167.5 37.5452C167.039 37.6747 166.623 37.9273 166.296 38.2756C166.147 38.4821 166.147 39.3329 166.461 39.3329Z" fill="#EBEBEB"/>
<path d="M276.374 185.064C280.714 185.064 353.734 185.543 358.322 185.402C358.652 185.402 358.826 184.907 358.504 184.742C355.61 183.313 352.328 183.602 349.319 182.586C347.55 181.991 346.467 180.835 345.236 179.513C344.22 178.358 342.908 177.501 341.441 177.035C340.097 176.637 338.673 176.594 337.308 176.911C335.828 177.266 334.547 178.109 333.133 178.646C329.62 179.967 326.214 178.712 323.709 176.118C321.642 173.979 319.576 171.988 316.806 170.807C315.659 170.291 314.417 170.016 313.159 169.999C311.9 169.982 310.652 170.223 309.49 170.708C306.812 171.922 304.977 174.359 302.456 175.829C299.48 177.572 295.908 177.159 292.618 177.679C289.328 178.2 286.79 180.983 283.905 182.578C282.962 183.18 281.874 183.517 280.756 183.552C280.112 183.494 279.472 183.403 278.838 183.28C278.376 183.154 277.89 183.156 277.43 183.286C276.969 183.415 276.553 183.667 276.225 184.015C276.093 184.18 276.093 185.064 276.374 185.064Z" fill="#EBEBEB"/>
<path d="M39.4518 60.5774C39.5344 60.8252 154.532 60.5774 153.085 60.5774C152.424 60.5774 154.086 59.5862 153.441 59.2724C149.696 57.4139 145.604 57.3643 141.529 56.9843C139.12 56.8951 136.752 56.3338 134.56 55.3323C132.394 54.2007 131.046 52.2266 129.509 50.3763C127.136 47.573 124.087 45.4196 120.651 44.119C117.215 42.8184 113.504 42.4134 109.867 42.9423C101.691 44.2226 95.2435 50.4507 87.0512 51.5906C82.1326 52.2844 77.4784 50.3763 72.6755 49.7073C68.9555 49.2009 65.1708 49.8924 61.871 51.6814C59.2752 52.97 56.911 54.052 53.9515 54.2503C51.6947 54.4072 49.4379 54.1512 47.1811 54.1264C43.5009 54.209 39.9759 55.6237 37.2611 58.1077C36.856 58.4298 35.6987 60.5774 39.4518 60.5774Z" fill="#EBEBEB"/>
<path d="M374.227 103.133C374.31 103.373 489.307 103.133 487.861 103.133C487.199 103.133 488.861 102.142 488.216 101.82C484.471 99.9612 480.379 99.9117 476.304 99.54C473.895 99.4507 471.527 98.8894 469.335 97.888C467.169 96.7481 465.822 94.7822 464.284 92.932C461.914 90.1255 458.866 87.9699 455.429 86.669C451.991 85.3681 448.279 84.9651 444.643 85.498C436.467 86.7783 430.019 92.998 421.827 94.1462C416.908 94.8317 412.254 92.932 407.451 92.2629C403.734 91.7424 399.949 92.4225 396.646 94.204C394.051 95.4926 391.686 96.5746 388.727 96.7729C386.47 96.9381 384.213 96.6737 381.956 96.6572C378.277 96.736 374.752 98.148 372.036 100.63C371.631 100.977 370.474 103.133 374.227 103.133Z" fill="#EBEBEB"/>
<path d="M459.043 55.9107C456.929 57.0245 454.6 57.6696 452.215 57.8023C450.816 55.8717 449.849 53.6631 449.379 51.3264C448.751 48.2702 450.512 44.7928 453.306 45.1892C456.397 45.6188 455.786 50.2939 455.786 50.2939C455.786 50.2939 459.092 46.8578 461.324 48.9971C463.375 50.9382 461.812 54.4735 459.043 55.9107Z" fill="#EBEBEB"/>
<path d="M165.32 74.331C163.21 75.446 160.884 76.0913 158.5 76.2225C157.103 74.2908 156.137 72.0827 155.665 69.7467C155.036 66.6905 156.789 63.2048 159.583 63.6013C162.675 64.0391 162.063 68.706 162.063 68.706C162.063 68.706 165.37 65.2781 167.602 67.4091C169.652 69.3502 168.081 72.8855 165.32 74.331Z" fill="#EBEBEB"/>
<path d="M363.257 24.3247C362.845 25.7568 362.128 27.0836 361.158 28.2151C359.686 28.0087 358.276 27.4874 357.024 26.687C355.371 25.6545 354.544 23.383 355.95 22.2679C357.479 21.0702 359.331 23.3582 359.331 23.3582C359.331 23.3582 359.198 20.4011 361.133 20.302C362.894 20.2194 363.803 22.4579 363.257 24.3247Z" fill="#EBEBEB"/>
<path d="M451.115 74.9997C448.767 78.1488 445.767 80.7549 442.319 82.6402C438.873 80.7597 435.873 78.1593 433.524 75.0162C430.424 70.8862 430.581 64.5095 435.012 63.1218C439.905 61.5854 442.319 68.9533 442.319 68.9533C442.319 68.9533 444.758 61.5193 449.627 63.1218C454.041 64.5425 454.215 70.9027 451.115 74.9997Z" fill="#EBEBEB"/>
<path d="M79.7599 35.2607C79.3569 36.6901 78.6522 38.0167 77.6932 39.1512C76.2215 38.9447 74.8117 38.4235 73.5599 37.6231C71.9066 36.5906 71.0799 34.3191 72.4852 33.204C74.0146 32.0063 75.858 34.2943 75.858 34.2943C75.858 34.2943 75.734 31.3372 77.6684 31.2464C79.3879 31.1638 80.3055 33.394 79.7599 35.2607Z" fill="#EBEBEB"/>
<path d="M100.716 128.962C98.3652 132.108 95.362 134.708 91.9121 136.586C88.4662 134.706 85.4662 132.106 83.1164 128.962C80.0247 124.832 80.1735 118.456 84.6044 117.068C89.5066 115.532 91.9121 122.9 91.9121 122.9C91.9121 122.9 94.3922 115.466 99.2282 117.068C103.643 118.505 103.808 124.866 100.716 128.962Z" fill="#EBEBEB"/>
</svg>
