<svg width="47" height="47" viewBox="0 0 47 47" fill="none" xmlns="http://www.w3.org/2000/svg">
<rect width="47" height="47" rx="10" fill="#E6F9E6"/>
<path d="M16.4538 32V15.2727H23.1513C24.3819 15.2727 25.4083 15.4551 26.2305 15.82C27.0527 16.1848 27.6707 16.6912 28.0845 17.3391C28.4983 17.9817 28.7053 18.7222 28.7053 19.5607C28.7053 20.2141 28.5746 20.7886 28.3132 21.2841C28.0518 21.7741 27.6925 22.1771 27.2351 22.4929C26.7831 22.8033 26.2659 23.0238 25.6832 23.1545V23.3178C26.3203 23.3451 26.9165 23.5247 27.4719 23.8569C28.0328 24.189 28.4875 24.6546 28.8359 25.2536C29.1844 25.8471 29.3587 26.5549 29.3587 27.3771C29.3587 28.2647 29.1381 29.0569 28.6971 29.7539C28.2615 30.4454 27.6162 30.9927 26.7614 31.3956C25.9065 31.7985 24.8529 32 23.6005 32H16.4538ZM19.9904 29.1087H22.8736C23.8591 29.1087 24.5779 28.9208 25.0298 28.5451C25.4818 28.1639 25.7077 27.6576 25.7077 27.0259C25.7077 26.5631 25.5961 26.1547 25.3729 25.8008C25.1496 25.4469 24.8311 25.1692 24.4173 24.9677C24.0089 24.7662 23.5215 24.6655 22.9553 24.6655H19.9904V29.1087ZM19.9904 22.2724H22.6122C23.0968 22.2724 23.527 22.188 23.9027 22.0192C24.2839 21.8449 24.5833 21.5999 24.8011 21.2841C25.0244 20.9683 25.136 20.5898 25.136 20.1488C25.136 19.5444 24.9209 19.0571 24.4908 18.6868C24.0661 18.3165 23.4616 18.1314 22.6776 18.1314H19.9904V22.2724Z" fill="#5DBD6D"/>
</svg>
