<svg width="47" height="47" viewBox="0 0 47 47" fill="none" xmlns="http://www.w3.org/2000/svg">
<rect width="47" height="47" rx="10" fill="#FBF2E3"/>
<path d="M7.45384 15.2727H11.8153L16.4219 26.5114H16.6179L21.2244 15.2727H25.5859V32H22.1555V21.1126H22.0167L17.6879 31.9183H15.3519L11.0231 21.0717H10.8842V32H7.45384V15.2727ZM34.0864 36.9659C32.9593 36.9659 31.9927 36.8107 31.1869 36.5004C30.3865 36.1954 29.7494 35.7789 29.2757 35.2507C28.8019 34.7225 28.4943 34.129 28.3527 33.4702L31.5708 33.0373C31.6688 33.2878 31.824 33.5219 32.0363 33.7397C32.2487 33.9575 32.5291 34.1317 32.8776 34.2624C33.2315 34.3986 33.6617 34.4666 34.1681 34.4666C34.9249 34.4666 35.5484 34.2815 36.0384 33.9112C36.5339 33.5464 36.7817 32.9338 36.7817 32.0735V29.7784H36.6347C36.4822 30.1269 36.2535 30.4563 35.9486 30.7667C35.6437 31.0771 35.2516 31.3303 34.7725 31.5263C34.2933 31.7223 33.7216 31.8203 33.0573 31.8203C32.1153 31.8203 31.2577 31.6025 30.4845 31.1669C29.7167 30.7259 29.1041 30.0534 28.6468 29.1495C28.1948 28.2402 27.9688 27.0913 27.9688 25.7028C27.9688 24.2816 28.2003 23.0946 28.6631 22.1417C29.1259 21.1888 29.7412 20.4755 30.509 20.0018C31.2822 19.5281 32.1289 19.2912 33.0491 19.2912C33.7515 19.2912 34.3396 19.411 34.8133 19.6506C35.287 19.8847 35.6682 20.1787 35.9568 20.5327C36.2508 20.8812 36.4768 21.2242 36.6347 21.5618H36.7654V19.4545H40.2203V32.1225C40.2203 33.1897 39.9589 34.0827 39.4362 34.8015C38.9134 35.5202 38.1892 36.0593 37.2636 36.4187C36.3434 36.7835 35.2843 36.9659 34.0864 36.9659ZM34.1599 29.2067C34.7207 29.2067 35.1945 29.0678 35.5811 28.7901C35.9731 28.507 36.2726 28.104 36.4795 27.5813C36.6919 27.0531 36.798 26.4215 36.798 25.6864C36.798 24.9513 36.6946 24.3143 36.4877 23.7752C36.2807 23.2307 35.9813 22.8087 35.5892 22.5092C35.1972 22.2098 34.7207 22.06 34.1599 22.06C33.5882 22.06 33.1063 22.2152 32.7142 22.5256C32.3222 22.8305 32.0254 23.2552 31.824 23.7997C31.6225 24.3442 31.5218 24.9731 31.5218 25.6864C31.5218 26.4106 31.6225 27.0368 31.824 27.565C32.0309 28.0877 32.3276 28.4934 32.7142 28.782C33.1063 29.0651 33.5882 29.2067 34.1599 29.2067Z" fill="#EFB65D"/>
</svg>
