<svg width="47" height="47" viewBox="0 0 47 47" fill="none" xmlns="http://www.w3.org/2000/svg">
<rect width="47" height="47" rx="10" fill="#E6F9E6"/>
<path d="M24.3835 32H18.4538V15.2727H24.4325C26.1151 15.2727 27.5634 15.6076 28.7777 16.2773C29.992 16.9416 30.9258 17.8973 31.5792 19.1442C32.238 20.3911 32.5675 21.883 32.5675 23.62C32.5675 25.3625 32.238 26.8598 31.5792 28.1122C30.9258 29.3646 29.9865 30.3256 28.7614 30.9954C27.5417 31.6651 26.0824 32 24.3835 32ZM21.9904 28.9698H24.2365C25.282 28.9698 26.1613 28.7847 26.8746 28.4144C27.5934 28.0387 28.1325 27.4588 28.4918 26.6747C28.8567 25.8852 29.0391 24.867 29.0391 23.62C29.0391 22.384 28.8567 21.3739 28.4918 20.5898C28.1325 19.8058 27.5961 19.2286 26.8828 18.8583C26.1695 18.488 25.2901 18.3029 24.2447 18.3029H21.9904V28.9698Z" fill="#5DBD6D"/>
</svg>
